<svg id="Capa_1" enable-background="new 0 0 512 512" height="512" viewBox="0 0 512 512" width="512" xmlns="http://www.w3.org/2000/svg"><g><g><path clip-rule="evenodd" d="m121.248 126.887c14.715 23.781 28.209 24.206 43.975 34.014l29.743 18.481 13.863 8.617c29.175 18.141 29.573-32.54 7.414-46.797-10.681-6.888-27.726-10.799-21.277-28.912h86.303l-5.824-10.29c-16.675-30.867-46.873-29.45-78.122-33.163-34.544-4.11-37.186-8.39-68.974-25.227l-32.583 61.14c12.215 6.491 19.289 12.131 25.482 22.137z" fill="#f2b394" fill-rule="evenodd"/></g><g><path clip-rule="evenodd" d="m49.433 85.617c-2.898 5.471-.795 12.33 4.687 15.249l24.118 12.783c5.483 2.92 12.357.822 15.283-4.649l2.244-4.252 32.584-61.139 2.273-4.223c2.926-5.499.824-12.358-4.687-15.249l-24.118-12.812c-5.483-2.919-12.357-.822-15.283 4.677z" fill="#a0e5a5" fill-rule="evenodd"/></g><g><path clip-rule="evenodd" d="m216.243 141.201c22.158 14.257 21.76 64.938-7.414 46.797l-13.863-8.617v56.633h122.068v-123.725h-35.765-86.303c-6.449 18.113 10.596 22.024 21.277 28.912z" fill="#fff" fill-rule="evenodd"/></g><g><path clip-rule="evenodd" d="m44.916 282.159h422.169 12.443c7.13 0 12.982-5.839 12.982-12.954v-20.238c0-7.143-5.852-12.954-12.982-12.954h-162.494-122.068-162.493c-7.159 0-12.982 5.811-12.982 12.954v20.238c0 7.115 5.852 12.954 12.982 12.954z" fill="#ffbdbc" fill-rule="evenodd"/></g><g><path clip-rule="evenodd" d="m87.016 324.166h337.968v135.828h-337.968zm-42.1-42.007v195.266c0 13.464 11.022 24.49 24.516 24.575h.114 372.909.114c13.494-.085 24.516-11.111 24.516-24.575v-195.266z" fill="#ffcd69" fill-rule="evenodd"/></g><g><path clip-rule="evenodd" d="m87.016 324.166h337.968v135.828h-337.968z" fill="#fff" fill-rule="evenodd"/></g><g><path d="m479.527 226.014h-152.493v-113.724c0-5.523-4.477-10-10-10h-29.935l-2.904-5.131c-17.04-31.451-45.884-34.272-73.78-37.002-3.908-.383-7.948-.778-11.909-1.249-27.064-3.22-32.35-6.11-52.019-16.864-1.629-.891-3.357-1.835-5.188-2.83.929-3.719.855-7.63-.306-11.392-1.68-5.444-5.378-9.897-10.367-12.515l-24.11-12.807c-5.012-2.669-10.775-3.221-16.224-1.555-5.447 1.665-9.917 5.344-12.584 10.355l-37.112 69.636c-5.481 10.347-1.523 23.247 8.824 28.757.006.003.011.006.017.009l24.102 12.775c3.177 1.692 6.596 2.494 9.969 2.494 5.816 0 11.491-2.391 15.56-6.713 6.243 4.11 10.127 8.156 13.677 13.892 12.324 19.915 24.327 25.698 35.935 31.291 3.863 1.861 7.511 3.619 11.266 5.954l25.021 15.548v41.072h-152.494c-12.672 0-22.982 10.297-22.982 22.953v20.238c0 12.657 10.31 22.953 22.982 22.953h2.443v185.267c0 19.064 15.534 34.574 34.629 34.574h372.91c19.095 0 34.629-15.51 34.629-34.575v-185.266h2.443c12.672 0 22.982-10.297 22.982-22.953v-20.238c0-12.657-10.31-22.954-22.982-22.954zm-396.606-121.199-24.108-12.779c-.607-.329-.861-1.139-.555-1.716l37.103-69.62c.206-.387.538-.556.779-.63.238-.073.602-.118.985.087l24.164 12.835c.292.154.493.398.594.726.072.232.115.59-.085.966l-37.094 69.601c-.328.614-1.155.864-1.783.53zm74.439 40.607c-10.256-4.941-18.356-8.843-27.61-23.798-5.836-9.43-12.463-15.489-20.6-20.687l23.322-43.759c1.548.842 3.019 1.647 4.42 2.412 20.629 11.279 28.347 15.5 59.252 19.177 4.168.495 8.314.901 12.322 1.293 23.959 2.345 43.241 4.244 55.464 22.229h-68.965c-.043 0-.074.009-.116.01-4.065.049-7.86 2.58-9.304 6.636-8.106 22.767 9.757 32.242 19.354 37.332 2.174 1.153 4.228 2.243 5.933 3.343 6.799 4.374 10.7 14.907 11.039 23.052.233 5.592-1.173 8.604-1.793 9.208-.565.057-2.572-.251-5.972-2.366l-43.602-27.095c-4.664-2.901-8.975-4.978-13.144-6.987zm47.606 51.896c5.619 3.232 10.678 4.6 15.094 4.6 7.89 0 13.754-4.286 17.208-9.745 9.684-15.31 3.852-46.855-15.605-59.375-2.413-1.556-4.944-2.898-7.392-4.197-5.343-2.834-8.26-4.661-9.68-6.31h102.444v103.725h-102.069zm277.543 71.887c0 1.601-1.366 2.954-2.982 2.954h-178.515c-5.523 0-10 4.477-10 10s4.477 10 10 10h156.072v185.267c0 8.036-6.563 14.575-14.63 14.575h-372.909c-8.067 0-14.63-6.538-14.63-14.575v-185.267h156.072c5.523 0 10-4.477 10-10s-4.477-10-10-10h-178.514c-1.617 0-2.982-1.353-2.982-2.954v-20.238c0-1.628 1.338-2.954 2.982-2.954h447.054c1.617 0 2.982 1.353 2.982 2.954z"/><path d="m77.016 324.166v135.828c0 5.523 4.477 10 10 10h337.968c5.523 0 10-4.477 10-10v-135.828c0-5.523-4.477-10-10-10h-337.968c-5.523 0-10 4.477-10 10zm20 10h317.968v115.828h-317.968z"/><path d="m335.727 404.699h-159.454c-5.523 0-10 4.477-10 10s4.477 10 10 10h159.453c5.523 0 10-4.477 10-10s-4.476-10-9.999-10z"/><path d="m374.872 359.432h-142.72c-5.523 0-10 4.477-10 10s4.477 10 10 10h142.721c5.523 0 10-4.477 10-10-.001-5.523-4.478-10-10.001-10z"/><path d="m192.04 369.432c0-5.523-4.477-10-10-10h-44.913c-5.523 0-10 4.477-10 10s4.477 10 10 10h44.913c5.523 0 10-4.477 10-10z"/><path d="m255.986 292.159h.057c5.523 0 9.971-4.477 9.971-10s-4.505-10-10.028-10-10 4.477-10 10 4.477 10 10 10z"/></g></g></svg>