<svg id="Capa_1" enable-background="new 0 0 512 512" height="512" viewBox="0 0 512 512" width="512" xmlns="http://www.w3.org/2000/svg"><g><g><g><path clip-rule="evenodd" d="m78.2 118.432c0 13.293 6.151 25.172 15.789 32.893 7.257 5.855 16.497 9.333 26.532 9.333 10.063 0 19.275-3.479 26.56-9.333 9.609-7.721 15.789-19.6 15.789-32.893 0-23.333-18.963-42.226-42.349-42.226s-42.321 18.893-42.321 42.226z" fill="#f5c6af" fill-rule="evenodd"/></g><g><path clip-rule="evenodd" d="m93.989 151.325c-22.45 10.154-38.154 32.752-38.154 58.828 18.198 13.123 40.535 20.873 64.685 20.873s46.516-7.75 64.685-20.873c0-26.077-15.704-48.675-38.125-58.828-7.285 5.855-16.497 9.333-26.56 9.333-10.034 0-19.275-3.478-26.531-9.333z" fill="#a0e5a5" fill-rule="evenodd"/></g><g><path clip-rule="evenodd" d="m120.521 76.206c23.385 0 42.349 18.893 42.349 42.226 0 13.293-6.179 25.172-15.789 32.893 22.422 10.154 38.125 32.752 38.125 58.828 27.779-20.024 45.864-52.606 45.864-89.431 0-59.281-46.913-107.645-105.73-110.162h-9.638c-58.818 2.518-105.702 50.882-105.702 110.163 0 36.824 18.056 69.406 45.835 89.431 0-26.077 15.704-48.675 38.154-58.828-9.638-7.721-15.789-19.6-15.789-32.893 0-23.334 18.935-42.227 42.321-42.227z" fill="#fff" fill-rule="evenodd"/></g><g><path clip-rule="evenodd" d="m391.649 10.646c-60.915 0-110.322 49.297-110.322 110.077 0 60.808 49.407 110.077 110.322 110.077 60.944 0 110.351-49.269 110.351-110.077 0-60.78-49.407-110.077-110.351-110.077z" fill="#a0e5a5" fill-rule="evenodd"/></g><g><path clip-rule="evenodd" d="m203.177 274.554h-165.313v22.739c0 12.529 10.29 22.768 22.818 22.768h59.838 59.838c12.557 0 22.818-10.238 22.818-22.768v-22.739z" fill="#ffcd69" fill-rule="evenodd"/></g><g><path clip-rule="evenodd" d="m474.306 274.554h-165.285v22.739c0 12.529 10.261 22.768 22.79 22.768h59.838 59.867c12.529 0 22.79-10.238 22.79-22.768z" fill="#ffcd69" fill-rule="evenodd"/></g><g><path clip-rule="evenodd" d="m255.986 323.907c-14.088 0-25.625 11.511-25.625 25.596v45.79 55.067h51.278v-55.067-45.79c0-14.085-11.537-25.596-25.653-25.596z" fill="#ffe6b4" fill-rule="evenodd"/></g><g><path clip-rule="evenodd" d="m281.639 450.36h-51.278-114.602c-14.088 0-25.625 11.539-25.625 25.596v25.483h331.732v-25.483c0-14.057-11.537-25.596-25.653-25.596z" fill="#ffcd69" fill-rule="evenodd"/></g><g><path d="m391.649 240.8c66.362 0 120.351-53.866 120.351-120.077s-53.989-120.077-120.351-120.077c-66.346 0-120.322 53.866-120.322 120.077s53.977 120.077 120.322 120.077zm0-220.154c55.333 0 100.351 44.894 100.351 100.077s-45.018 100.077-100.351 100.077c-55.318 0-100.322-44.895-100.322-100.077s45.004-100.077 100.322-100.077z"/><path d="m49.289 217.701c.422.366.875.695 1.355.987 19.723 14.058 43.849 22.338 69.877 22.338 26.071 0 50.233-8.304 69.976-22.398.417-.261.815-.548 1.188-.865 29.92-21.912 49.385-57.248 49.385-97.04 0-66.319-54.078-120.274-120.549-120.274-66.456-.001-120.521 53.954-120.521 120.274 0 39.755 19.423 75.061 49.289 96.978zm16.801-12.69c1.678-17.478 11.821-33.194 27.124-42.051 7.954 4.878 17.306 7.698 27.307 7.698 10.003 0 19.358-2.818 27.315-7.694 15.302 8.86 25.442 24.577 27.117 42.057-15.699 10.122-34.389 16.005-54.432 16.005-20.044 0-38.734-5.887-54.431-16.015zm54.431-54.353c-17.821 0-32.32-14.457-32.32-32.227s14.499-32.226 32.32-32.226c17.837 0 32.349 14.456 32.349 32.226s-14.513 32.227-32.349 32.227zm0-130.21c55.442 0 100.549 44.982 100.549 100.274 0 27.154-10.878 51.818-28.508 69.896-4.619-16.825-15.073-31.663-29.569-41.711 6.206-8.584 9.877-19.108 9.877-30.476 0-28.797-23.483-52.226-52.349-52.226-28.85 0-52.32 23.429-52.32 52.226 0 11.364 3.666 21.884 9.865 30.466-14.5 10.045-24.957 24.881-29.58 41.705-17.618-18.076-28.486-42.733-28.486-69.879 0-55.292 45.094-100.275 100.521-100.275z"/><path d="m474.306 264.554h-165.285c-5.522 0-10 4.478-10 10v22.739c0 18.068 14.71 32.768 32.79 32.768h45.784l-14.559 41.966c-3.953 11.423-8.181 13.267-16.77 13.267h-54.629v-35.79c0-19.628-15.994-35.596-35.653-35.596-19.644 0-35.624 15.968-35.624 35.596v35.79h-54.459c-8.57 0-12.795-1.846-16.772-13.273l-14.556-41.959h45.786c18.096 0 32.818-14.699 32.818-32.768v-22.739c0-5.522-4.478-10-10-10h-165.313c-5.522 0-10 4.478-10 10v22.739c0 18.068 14.723 32.768 32.818 32.768h52.723l16.833 48.523c6.429 18.472 17.428 26.709 35.664 26.709h54.459v35.067h-104.602c-19.644 0-35.625 15.968-35.625 35.596v25.596c0 2.653 1.055 5.198 2.933 7.074 1.875 1.874 4.417 2.926 7.067 2.926h.01l120.951-.112c5.523-.005 9.996-4.486 9.991-10.009-.005-5.521-4.481-9.991-10-9.991-.003 0-.006 0-.009 0l-110.943.104v-15.587c0-8.6 7.01-15.596 15.625-15.596h280.454c8.631 0 15.653 6.996 15.653 15.596v15.587l-110.972-.104c-.003 0-.006 0-.009 0-5.519 0-9.995 4.472-10 9.991-.005 5.522 4.468 10.004 9.991 10.009l120.979.112h.01c2.65 0 5.192-1.053 7.067-2.926 1.878-1.876 2.933-4.421 2.933-7.074v-25.596c0-19.628-15.994-35.596-35.653-35.596h-104.573v-35.067h54.629c18.273 0 29.274-8.242 35.667-26.719l16.83-48.514h52.751c18.08 0 32.79-14.699 32.79-32.768v-22.739c0-5.523-4.478-10-10-10zm-426.442 32.739v-12.739h145.313v12.739c0 7.04-5.75 12.768-12.818 12.768h-119.676c-7.069 0-12.819-5.728-12.819-12.768zm192.497 143.067v-90.857c0-8.6 7.009-15.596 15.624-15.596 8.631 0 15.653 6.996 15.653 15.596v90.857zm223.945-143.067c0 7.04-5.737 12.768-12.79 12.768h-119.704c-7.053 0-12.79-5.728-12.79-12.768v-12.739h145.284z"/><path d="m255.985 491.439h-.028c-5.522 0-9.985 4.478-9.985 10s4.491 10 10.014 10 10-4.478 10-10-4.478-10-10.001-10z"/></g></g><path d="m404.461 111.619c-11.836-4.167-18.649-7.323-22.778-10.55-1.372-1.073-1.945-3.647-1.426-6.403.266-1.415 1.509-6.146 6.311-7.59 8.578-2.573 14.456 1.138 16.051 2.338 4.539 3.407 10.985 2.491 14.392-2.048 3.409-4.54 2.492-10.984-2.047-14.393-1.747-1.311-5.781-3.983-11.551-5.718v-9.313c0-5.677-4.603-10.279-10.279-10.279-5.677 0-10.279 4.603-10.279 10.279v8.853c-.726.177-1.457.368-2.199.591-10.581 3.18-18.476 12.177-20.602 23.478-1.961 10.424 1.473 20.538 8.966 26.4 6.074 4.747 14.364 8.73 28.614 13.746 8.44 2.973 8.695 9.422 8.095 13.002-1 5.969-6.029 12.42-14.698 12.478-8.955.058-11.518-.354-18.306-4.773-4.757-3.098-11.124-1.753-14.223 3.005-3.097 4.757-1.752 11.124 3.005 14.222 8.09 5.268 13.92 7.219 21.349 7.845v7.871c0 5.677 4.602 10.279 10.279 10.279s10.279-4.603 10.279-10.279v-9.808c12.635-4.677 20.696-16.132 22.591-27.443 2.668-15.929-5.989-30.311-21.544-35.79z"/></g></svg>