<svg width="3414" height="474" viewBox="0 0 3414 474" fill="none" xmlns="http://www.w3.org/2000/svg">
<path fill-rule="evenodd" clip-rule="evenodd" d="M70.6143 448.186H395.027V344.735H188.693V22.1862H70.6143V448.186ZM447.978 448.186H566.666V22.1862H447.978V448.186ZM644.572 448.186H760.825V214.495L943.203 448.186H1046.89V22.1862H930.639V247.358L754.975 22.1862H644.572V448.186ZM1122.36 448.186H1240.44V338.034L1283.65 289.958L1390.78 448.186H1532.59L1365.82 205.366L1527.11 22.1862H1387.12L1240.44 195.025V22.1862H1122.36V448.186ZM2190.53 233.969V120.775H2245.92C2267.43 120.775 2284.17 125.567 2296.14 135.151C2308.09 144.736 2314.08 158.708 2314.09 177.067V178.294C2314.09 195.43 2308.11 208.993 2296.14 218.983C2284.17 228.972 2267.64 233.967 2246.53 233.969H2190.53ZM2072.45 448.186H2190.53V326.473H2248.97C2273.75 326.689 2298.44 323.412 2322.31 316.74C2343.43 310.962 2363.19 301.031 2380.43 287.529C2396.61 274.609 2409.62 258.165 2418.48 239.451C2427.6 220.387 2432.17 198.276 2432.18 173.118V171.894C2432.18 148.37 2428.01 127.273 2419.69 108.604C2411.66 90.3237 2399.47 74.1729 2384.09 61.4399C2368.66 48.6605 2349.99 38.9234 2328.08 32.2285C2304.37 25.2791 2279.75 21.8947 2255.04 22.1862H2072.45V448.186ZM2637.29 280.83L2685.36 159.716L2732.84 280.83H2637.29ZM2447.99 448.186H2572.16L2602.59 372.115H2766.93L2797.97 448.186H2924.56L2743.19 19.1439H2629.37L2447.99 448.186ZM3084.03 343.515V126.861H3132.3C3167.72 126.861 3196.22 136.293 3217.81 155.157C3239.4 174.021 3250.2 200.494 3250.2 234.576V235.793C3250.2 270.283 3239.41 296.858 3217.81 315.516C3196.22 334.175 3167.71 343.508 3132.3 343.515H3084.03ZM2965.94 448.19H3127.85C3165.99 448.19 3200.18 442.814 3230.41 432.063C3260.65 421.312 3286.11 406.401 3306.8 387.332C3327.38 368.436 3343.58 345.278 3354.28 319.476C3365.41 292.357 3371 263.284 3370.7 233.972V232.756C3370.7 201.928 3365.33 173.632 3354.57 147.868C3344.07 122.462 3328.07 99.7022 3307.7 81.2307C3287.21 62.5747 3262.05 48.0705 3232.23 37.7182C3202.41 27.3659 3168.43 22.1934 3130.28 22.2006H2965.94V448.186V448.19Z" fill="white" stroke="white" stroke-width="10"/>
<path fill-rule="evenodd" clip-rule="evenodd" d="M1982.79 233.395C1982.79 351.347 1887.16 446.966 1769.19 446.966C1651.22 446.966 1555.59 351.347 1555.59 233.395C1555.59 115.444 1651.22 19.8251 1769.19 19.8251C1887.16 19.8251 1982.79 115.444 1982.79 233.395ZM1874.85 137.083C1850.1 106.088 1769.19 231.906 1769.19 231.906C1769.19 231.906 1688.99 105.72 1664.21 136.224C1648.17 156.016 1638.04 179.94 1635.01 205.238C1631.98 230.535 1636.17 256.173 1647.08 279.194C1658 302.215 1675.21 321.681 1696.71 335.345C1718.22 349.009 1743.15 356.314 1768.63 356.418C1794.12 356.522 1819.11 349.421 1840.73 335.933C1862.34 322.445 1879.71 303.12 1890.81 280.189C1901.92 257.258 1906.31 231.654 1903.49 206.333C1900.66 181.012 1890.74 157.006 1874.85 137.083Z" fill="white"/>
</svg>
