<?xml version="1.0" encoding="UTF-8"?> <svg xmlns="http://www.w3.org/2000/svg" width="1894" height="263" viewBox="0 0 1894 263"><defs><style> .cls-1 { fill: none; stroke: #335fd3; stroke-width: 5px; } .cls-1, .cls-3 { fill-rule: evenodd; } .cls-2 { fill: #335fd3; } .cls-3 { fill: #fff; } </style></defs><path id="link_pad" data-name="link pad" class="cls-1" d="M39.175,248.677H219.151v-57.4H104.682V12.31H39.175V248.677Zm209.352,0h65.845V12.31H248.527V248.677Zm109.065,0h64.494V119.013L523.265,248.677h57.524V12.31H516.295V137.247L418.841,12.31H357.592V248.677Zm265.064,0h65.507V187.559l23.975-26.675,59.429,87.793h78.676l-92.52-134.729L847.2,12.31H769.541l-81.378,95.9V12.31H622.656V248.677ZM1215.25,129.818V67.012h30.73q17.895,0,27.86,7.977,9.945,7.977,9.96,23.257v0.681q0,14.262-9.96,22.576t-27.52,8.315h-31.07Zm-65.51,118.859h65.51V181.144h32.42a146.393,146.393,0,0,0,40.69-5.4,91.388,91.388,0,0,0,32.24-16.208,75.431,75.431,0,0,0,21.11-26.676q7.59-15.867,7.6-36.805V95.376q0-19.579-6.93-35.117a71.086,71.086,0,0,0-19.75-26.169q-12.84-10.636-31.07-16.208a138.266,138.266,0,0,0-40.52-5.572h-101.3V248.677Zm313.36-92.858,26.67-67.2,26.34,67.2H1463.1Zm-105.02,92.858h68.89l16.88-42.208h91.17l17.22,42.208h70.23L1521.85,10.622h-63.14ZM1710.94,190.6V70.389h26.78q29.475,0,47.44,15.7t17.97,44.066v0.675q0,28.706-17.97,44.235T1737.72,190.6h-26.78Zm-65.51,58.079h89.82q31.74,0,56.9-8.948t42.38-24.819a106.539,106.539,0,0,0,26.34-37.65,121.766,121.766,0,0,0,9.11-47.442v-0.675q0-25.657-8.95-47.1a103.063,103.063,0,0,0-26-36.974q-17.055-15.527-41.87-24.143t-56.56-8.61h-91.17V248.677Z"></path><circle class="cls-2" cx="981.5" cy="129.5" r="118.5"></circle><path class="cls-3" d="M981.5,145.319s44.89-86.456,58.62-69.258a74.968,74.968,0,1,1-116.858-.477C937.007,58.659,981.5,145.319,981.5,145.319Z"></path></svg> 